# xmcd
#
# Track frame offsets:
# 182
# 22307
# 38732
# 59132
# 81032
# 112975
# 135557
# 139232
# 161657
# 178307
# 198857
# 220982
# 252722
#
# Disc length: 3668 seconds
#
#
# Revision: 1
# Processed by: cddbd v1.5.2PL0 Copyright (c) Steve Scherf et al.
# Submitted via: FreeRIP 2.96 
#
DISCID=c80e520d
DTITLE=Quest - Standards and Originals
DYEAR=1988
DGENRE=Jazz
TTITLE0=Day and Nite
TTITLE1=Blue N Green
TTITLE2=Softly as in a morning sunrise
TTITLE3=Ralphs's piano waltz
TTITLE4=Pablo's story
TTITLE5=Pendulum
TTITLE6=Tuning Note (concert Bb)
TTITLE7=Day and Nite (Play-along)
TTITLE8=Blue N Green (Play-along)
TTITLE9=Softly as in a morning sunrise (Play-along)
TTITLE10=Ralph's Piano Waltz (Play-along)
TTITLE11=Pablo's story (Play-along)
TTITLE12=Pendulum (Play-along)
EXTD=the jazz workshop series
EXTT0=
EXTT1=
EXTT2=
EXTT3=
EXTT4=
EXTT5=
EXTT6=
EXTT7=
EXTT8=
EXTT9=
EXTT10=
EXTT11=
EXTT12=
PLAYORDER=
